<svg xmlns="http://www.w3.org/2000/svg" width="121" height="97" viewBox="0 0 121 97">
  <g fill="none" fill-rule="evenodd" stroke-linecap="round" stroke-linejoin="round">
    <polyline stroke="#000" stroke-width="5" points="2.5 89.816 40.582 8.792 36.53 70.37 67.313 2.5"/>
    <path stroke="#000" stroke-width="5" d="M71.3135,24.4999 C59.9705,43.9459 59.9765,50.9249 63.2165,54.9759 C66.4585,59.0269 73.8105,61.0379 78.6115,53.3549 C82.6625,46.8739 79.3135,38.4999 71.3135,24.4999 Z"/>
    <path stroke="#000" stroke-width="5" d="M52.3135 65.4999C76.3135 88.4999 111.5195 57.3349 86.7135 26.6179 75.3135 12.4999 81.3135 6.4999 87.3135 6.4999 94.3135 6.4999 96.3135 13.4999 95.3135 17.4999M101.2984 34.7201C101.2984 34.7201 103.7294 24.1871 104.5394 6.3611 109.4014 14.4641 118.3134 34.7201 118.3134 34.7201M103.3135 26.4999L114.3135 26.4999"/>
    <path stroke="#000" stroke-width="5" d="M102.1085,42.8221 L118.3135,42.8221 C115.0725,97.9191 63.2165,104.4011 42.1505,81.7141"/>
  </g>
</svg>
