<svg xmlns="http://www.w3.org/2000/svg" width="1631" height="2126" viewBox="0 0 1631 2126">
  <g fill="#FFF" fill-rule="evenodd" opacity=".054" transform="rotate(-26 1308.096 1771.073)">
    <path d="M42.6646614 1543C36.6034569 1543 30.405662 1541.72973 24.5322695 1539.02205 3.20707401 1529.2109-5.96156486 1504.32368 4.06076478 1483.43111L654.248729 129.191535C662.990523 111.006643 683.666913 101.479632 703.557908 106.510562 723.414755 111.524779 736.817701 129.659528 735.468869 149.716394L681.720498 949.885052 1110.444 24.5281235C1120.159 3.53527075 1145.4624-5.79117182 1166.94126 3.7358394 1188.40304 13.2795647 1197.91316 38.0330798 1188.18108 59.0593607L662.597825 1193.44226C654.077991 1211.84443 633.282084 1221.58873 613.339868 1216.72494 593.329356 1211.811 579.772746 1193.59268 581.138652 1173.45225L635.484606 364.792851 81.3368533 1518.9819C74.0634079 1534.12484 58.6969741 1543 42.6646614 1543M1215.44242 508.831418C1072.48561 789.44032 1087.77874 874.199222 1118.75956 916.142652 1140.53924 945.638134 1175.57613 963.369621 1207.61436 961.351959 1241.64118 959.197507 1272.7009 935.395935 1297.44768 892.49497 1340.47045 817.94407 1320.19009 717.420048 1215.44242 508.831418M1202.57978 1047C1147.86227 1047 1092.86067 1017.94909 1057.14514 969.559398 981.373927 866.966417 1016.28455 707.331738 1181.65234 400.202549 1188.73863 387.070648 1201.71175 379 1215.74229 379L1215.90011 379C1230.00956 379.068395 1242.99846 387.292933 1249.99005 400.544526 1384.4086 655.385492 1438.99985 808.45422 1364.38075 937.80687 1315.23442 1022.97614 1254.50382 1044.0248 1212.20703 1046.69222 1209.00321 1046.89741 1205.78361 1047 1202.57978 1047"/>
    <path d="M1224.6392 1338C1114.32275 1338 996.014322 1294.63685 887.03269 1187.12477 870.170106 1170.49614 869.595629 1142.9789 885.748566 1125.63712 901.867709 1108.29534 928.63157 1107.70394 945.477258 1124.31518 1076.28901 1253.37837 1297.3781 1316.3967 1473.53973 1149.76254 1615.14826 1015.84643 1667.30738 765.095069 1464.61844 506.725156 1330.59638 335.864266 1334.44875 231.100432 1361.2802 173.300296 1386.25304 119.448589 1442.34901 86 1507.61972 86 1580.62896 86 1623.69783 122.562108 1646.96414 153.245058 1688.86715 208.470887 1695.6426 282.49959 1683.78134 331.35923 1678.12106 354.667139 1655.15888 368.773642 1632.55153 362.998847 1609.91038 357.17187 1596.15673 333.550869 1601.80012 310.260354 1608.67695 281.942983 1603.54045 237.292683 1580.39241 206.766279 1563.37776 184.328068 1538.89491 172.969811 1507.61972 172.969811 1495.30226 172.969811 1453.80476 175.683269 1437.49975 210.801678 1426.71987 234.005224 1414.19965 303.998527 1530.36224 452.073327 1636.91079 587.920171 1689.45853 735.925395 1682.27757 880.069159 1675.85694 1008.92363 1622.04198 1127.44609 1530.70017 1213.80711 1452.2165 1288.02715 1343.03211 1338 1224.6392 1338M1844.52991 410.341862C1849.10849 366.272393 1853.67253 315.48608 1857.61156 258.05271 1878.09161 307.18162 1899.29842 360.392974 1918.76101 410.341862L1844.52991 410.341862zM2062.90626 579.798219C2057.58638 565.265413 1931.62463 222.252808 1860.59127 80.1697683 1852.34983 63.6655252 1836.11405 55.6227598 1820.54689 60.3332732 1804.99426 65.0437865 1793.87486 81.4084589 1793.1481 100.634332 1781.69439 403.276092 1747.28965 585.782316 1746.92627 587.579289 1742.44944 611.044624 1754.62991 634.45762 1774.19424 639.865988 1793.67136 645.239462 1813.2357 630.654317 1817.7416 607.171536 1818.39568 603.786944 1825.57605 565.666679 1834.3989 497.573591L1952.38085 497.573591C1978.09356 565.125842 1995.92821 613.64413 1996.39333 614.935159 2002.38182 631.282385 2015.69603 641 2029.66433 641 2034.56268 641 2039.53371 639.813648 2044.28671 637.283928 2062.65916 627.58376 2071.00234 601.8504 2062.90626 579.798219z"/>
    <path d="M1227.4913,1659 C1018.30004,1659 814.172775,1577.53343 679.51182,1428.86666 C663.320813,1411.01605 664.337057,1383.08365 681.751002,1366.48665 C699.199396,1349.9073 726.448518,1350.94903 742.622301,1368.79963 C913.454655,1557.36984 1212.76438,1622.7691 1470.54589,1527.86602 C1759.22811,1421.59223 1941.9798,1141.72085 1976.51487,756.281932 L1743.8122,756.281932 C1720.0252,756.281932 1700.75101,736.524436 1700.75101,712.140966 C1700.75101,687.757496 1720.0252,668 1743.8122,668 L2022.93483,668 C2034.78527,668 2046.11898,673.014414 2054.26616,681.860263 C2062.39611,690.706113 2066.61611,702.606517 2065.92713,714.736455 C2040.27988,1161.24881 1833.89621,1487.90962 1499.65525,1610.95697 C1411.5865,1643.39175 1319.03939,1659 1227.4913,1659"/>
  </g>
</svg>
